{
  "accessors": [
    {
      "bufferView": 2,
      "componentType": 5126,
      "count": 48954,
      "max": [
        1.7894700765609741,
        0.8476587533950806,
        9.180733680725098
      ],
      "min": [
        -59.78658676147461,
        -0.8476587533950806,
        -59.15800094604492
      ],
      "type": "VEC3"
    },
    {
      "bufferView": 2,
      "byteOffset": 587448,
      "componentType": 5126,
      "count": 48954,
      "max": [
        0.9999908208847046,
        1.0,
        0.9999310374259949
      ],
      "min": [
        -0.9999749660491943,
        -1.0,
        -0.9999758005142212
      ],
      "type": "VEC3"
    },
    {
      "bufferView": 1,
      "componentType": 5126,
      "count": 48954,
      "max": [
        0.514359176158905,
        0.99853515625
      ],
      "min": [
        0.0,
        0.0
      ],
      "type": "VEC2"
    },
    {
      "bufferView": 0,
      "componentType": 5125,
      "count": 253044,
      "type": "SCALAR"
    }
  ],
  "asset": {
    "extras": {
      "author": "Carlos.Maciel (https://sketchfab.com/Carlos.Maciel)",
      "license": "CC-BY-4.0 (http://creativecommons.org/licenses/by/4.0/)",
      "source": "https://sketchfab.com/3d-models/cuban-chain-31e8e61797834a3bb72b900f746df1ea",
      "title": "Cuban Chain"
    },
    "generator": "Sketchfab-12.66.0",
    "version": "2.0"
  },
  "bufferViews": [
    {
      "buffer": 0,
      "byteLength": 1012176,
      "name": "floatBufferViews",
      "target": 34963
    },
    {
      "buffer": 0,
      "byteLength": 391632,
      "byteOffset": 1012176,
      "byteStride": 8,
      "name": "floatBufferViews",
      "target": 34962
    },
    {
      "buffer": 0,
      "byteLength": 1174896,
      "byteOffset": 1403808,
      "byteStride": 12,
      "name": "floatBufferViews",
      "target": 34962
    }
  ],
  "buffers": [
    {
      "byteLength": 2578704,
      "uri": "scene.bin"
    }
  ],
  "materials": [
    {
      "doubleSided": true,
      "name": "default",
      "pbrMetallicRoughness": {
        "baseColorFactor": [
          0.14171748447276772,
          0.14171748447276772,
          0.14171748447276772,
          1.0
        ],
        "roughnessFactor": 0.24444350958278552
      }
    }
  ],
  "meshes": [
    {
      "name": "object_3_default_0",
      "primitives": [
        {
          "attributes": {
            "NORMAL": 1,
            "POSITION": 0,
            "TEXCOORD_0": 2
          },
          "indices": 3,
          "material": 0,
          "mode": 4
        }
      ]
    }
  ],
  "nodes": [
    {
      "children": [
        1
      ],
      "matrix": [
        1.0,
        0.0,
        0.0,
        0.0,
        0.0,
        2.220446049250313e-16,
        -1.0,
        0.0,
        0.0,
        1.0,
        2.220446049250313e-16,
        0.0,
        0.0,
        0.0,
        0.0,
        1.0
      ],
      "name": "Sketchfab_model"
    },
    {
      "children": [
        2
      ],
      "matrix": [
        1.0,
        0.0,
        0.0,
        0.0,
        0.0,
        0.0,
        1.0,
        0.0,
        0.0,
        -1.0,
        0.0,
        0.0,
        0.0,
        0.0,
        0.0,
        1.0
      ],
      "name": "f819f25d3b0f416d89af3f43b7ac76a1.fbx"
    },
    {
      "children": [
        3
      ],
      "name": "RootNode"
    },
    {
      "children": [
        4
      ],
      "matrix": [
        1.0,
        0.0,
        0.0,
        0.0,
        0.0,
        -0.9999999999999991,
        4.3711387965113384e-08,
        0.0,
        0.0,
        -4.3711387965113384e-08,
        -0.9999999999999991,
        0.0,
        0.0,
        6.179916858673096,
        6.179916858673096,
        1.0
      ],
      "name": "object_3"
    },
    {
      "mesh": 0,
      "name": "object_3_default_0"
    }
  ],
  "scene": 0,
  "scenes": [
    {
      "name": "Sketchfab_Scene",
      "nodes": [
        0
      ]
    }
  ]
}
